<?xml version="1.0" encoding="utf-8"?>
<!-- Generator: Adobe Illustrator 22.0.1, SVG Export Plug-In . SVG Version: 6.00 Build 0)  -->
<svg version="1.1" id="Layer_1" xmlns="http://www.w3.org/2000/svg" x="0px"
     y="0px"
     viewBox="0 0 324 324" style="enable-background:new 0 0 324 324;" xml:space="preserve">
<style type="text/css">
	.st0{fill:#044054;}
	.st1{fill:#86a0a9;}
</style>
    <path class="st0" d="M319.5,167.5h-11.2c0.1-1.8,0.1-3.7,0.1-5.5c0-80.8-65.5-146.4-146.4-146.4S15.6,81.2,15.6,162
	c0,1.8,0,3.7,0.1,5.5H7.6v30H20c15.9,63.7,73.4,110.9,142,110.9s126.2-47.2,142-110.9h15.5V167.5z"/>
    <title>Artboard 1</title>
    <g>
	<path class="st1" d="M162.6,29.3c65.7,0,120.3,48,130.8,110.7c0.7-0.1,1.4,0.1,1.9,0.5C285,76.5,229.4,27.4,162.5,27.4
		C96,27.5,40.6,76.2,30,139.9c0.6,0,1.2,0.2,1.7,0.6C42,77.5,96.8,29.3,162.6,29.3z"/>
        <path class="st1" d="M293.6,183.1c-10.4,64.3-65.9,111.5-131,111.6c-65.8,0-120.5-48.1-130.9-111c-0.5,0.3-1.2,0.5-1.8,0.5
		c10.6,63.6,66,112.3,132.6,112.3c66.9,0,122.5-49.1,132.8-113.1C294.7,183.5,294.1,183.4,293.6,183.1z"/>
        <rect x="18.9" y="139.4" class="st1" width="45.3" height="1.8"/>
        <rect x="18.9" y="182.8" class="st1" width="45.3" height="1.8"/>
        <rect x="259.8" y="139.4" class="st1" width="45.3" height="1.8"/>
        <rect x="259.8" y="182.8" class="st1" width="45.3" height="1.8"/>
        <path class="st1" d="M70.7,238.2c-3.5-4.3-2.8-9.1,1.3-12.4c3.6-3,8.9-2.5,11.9,1.1c0,0,0,0,0,0c0.7,0.9,1.2,2,1.6,3.1
		c0.1,0.3,0.2,0.6,0.4,0.9c0.3,0.3,0.8,0.4,1.2,0.1c0.1,0,0.1-0.1,0.1-0.2l1.2,1.5l-5.1,4.1l-1-1.3c1.7-1.7,1.9-4.5,0.3-6.4
		c-2-2.5-5.2-0.9-7.1,0.7c-2.6,2.1-4.5,4.9-2.2,7.8c1.2,1.5,3.7,2,6.2,1l0.6,1.4C76.8,241.4,73.1,241.1,70.7,238.2z"/>
        <path class="st1" d="M89.5,256.4c-3.9-2.8-4.8-8.1-2.1-12c0.1-0.1,0.2-0.2,0.3-0.4c3.1-4.1,8.4-4.5,12.4-1.4s4.9,8.3,1.7,12.4
		C98.6,259.1,93.5,259.5,89.5,256.4z M98.5,244.3c-2.3-1.8-4.6,0.2-6,2.1s-4.1,6.3-1.5,8.4c2.3,1.8,4.6-0.3,6-2.1
		C98.6,250.7,101.2,246.3,98.5,244.3L98.5,244.3z"/>
        <path class="st1" d="M118.8,272.8l0.9-2.1l0.8,0.3c1.1,0.5,1.7,0.3,2.2-1l3.8-9l-9.9,10.9l-2.2-0.9l0.4-14.2l-3.5,8.5
		c-0.6,1.4-0.1,1.9,0.8,2.3l0.8,0.3L112,270l-6.5-2.7l0.9-2.1l0.3,0.1c1.1,0.5,1.7,0.3,2.2-1l3.4-8.3c0.3-0.8,0.2-1.6-0.3-2.3
		l-0.8-0.9l0.5-1.2l7.7,3.2l-0.3,10.4l6.8-7.6l8,3.3L133,263l-0.3-0.1c-1-0.4-1.6-0.2-2.2,1l-3.4,8.1c-0.6,1.4-0.1,1.9,0.8,2.3
		l0.8,0.3l-0.9,2.1L118.8,272.8z"/>
        <path class="st1" d="M147.9,273.4l-2.3-0.3l-0.3,2.5c-0.2,1.5,0.4,1.9,1.4,2l1.5,0.2l-0.3,2.2l-9.9-1.3l0.3-2.2h0.3
		c1.2,0.2,1.7-0.1,1.9-1.6l1.2-8.9c0.1-0.8-0.2-1.7-0.9-2.2l-1-0.7l0.2-1.3l8.6,1.1c3.8,0.5,8.2,1.7,7.6,6.4
		C155.5,273.4,151.2,273.8,147.9,273.4z M148.7,265.4l-0.5-0.1c-1.1-0.1-1.6,0.2-1.8,1.6l-0.5,4l1.8,0.2c1.7,0.2,3-0.5,3.3-2.3
		C151.1,267.2,150.4,265.6,148.7,265.4z"/>
        <path class="st1" d="M171.2,280.4l-0.2-2.2l1.1-0.1c0.6,0,0.8-0.3,0.8-0.7c0-0.2-0.1-0.4-0.2-0.6l-0.5-1.1l-6,0.4l-0.3,1
		c-0.1,0.2-0.1,0.4-0.1,0.6c0,0.5,0.5,0.8,1.2,0.8l1.1-0.1l0.2,2.2l-7.1,0.5l-0.2-2.2h0.6c0.8-0.1,1-0.6,1.2-1.2l4.1-13.8l4.8-0.4
		l5.7,12.8c0.3,0.7,0.6,1.4,1.5,1.4h0.7l0.2,2.2L171.2,280.4z M168.8,267.7L167,274l4.4-0.3L168.8,267.7z"/>
        <path class="st1" d="M202.3,258.4c-1.2,0.4-1.5,0.8-1,2.2l3.9,12.2l-4.4,1.4l-10.8-8.7l2.3,7.2c0.5,1.5,1.1,1.5,2.1,1.2l1.2-0.4
		l0.7,2.1l-7.1,2.3l-0.7-2.1l0.3-0.1c1.2-0.4,1.5-0.8,1-2.2L187,265c-0.3-0.8-1-1.4-1.8-1.5l-1.2-0.2l-0.4-1.2l6.7-2.2l10.6,8.3
		l-2.2-6.8c-0.5-1.5-1.2-1.5-2.1-1.2l-1.1,0.3l-0.7-2.1l7-2.3l0.7,2.1L202.3,258.4z"/>
        <path class="st1" d="M216.1,267.6l-1.1-1.9l0.2-0.1c1.1-0.6,1.3-1.1,0.5-2.4l-4.5-7.8c-0.4-0.7-1.2-1.2-2-1.2l-1.2,0.1l-0.7-1.1
		l7.9-4.5l1.1,1.9l-0.3,0.2c-1,0.6-1.2,1.2-0.5,2.3l4.4,7.6c0.8,1.3,1.4,1.3,2.3,0.8l0.8-0.4l1.1,1.9L216.1,267.6z"/>
        <path class="st1" d="M232.7,257.4l-1.5-1.7l0.2-0.2c0.9-0.8,1-1.3,0.1-2.4l-5.9-6.8c-0.5-0.6-1.4-0.9-2.2-0.7l-1.2,0.3l-0.9-1
		l12.3-10.8l4.2,4.8l-1.2,1.1c-2-1.7-3.7-2.3-5.9-0.4l-1.4,1.2c-0.8,0.7-0.9,1.4,0,2.4l2.1,2.4l0.8-0.7c0.8-0.7,0.3-1.6-0.3-2.3
		l-0.4-0.5l1.6-1.4l4.8,5.5l-1.6,1.4l-0.4-0.5c-0.6-0.7-1.4-1.3-2.2-0.6l-0.8,0.7l2.2,2.6c1,1.2,1.7,0.9,2.4,0.3l1.6-1.4
		c2.2-1.9,1.5-4.1-0.1-6l1.3-1.2l4.5,5.2L232.7,257.4z"/>
        <path class="st1" d="M257.4,232.2c-0.8,1.1-1.8,2-3,2.7c-0.3,0.2-0.6,0.4-0.8,0.7c-0.3,0.4-0.1,0.7,0.2,1l-1.1,1.5l-5.2-3.8
		l0.9-1.3c2.5,1,5.3,0.3,7-1.8c0.9-1.2,1.3-2.7,0.1-3.6c-3.3-2.4-7.1,7.4-13,3.1c-2.8-2-1.9-5.2,0-7.7c0.8-1,1.8-1.9,2.9-2.7
		c0.2-0.1,0.4-0.3,0.6-0.5c0.2-0.3,0.1-0.6-0.2-0.9l1.1-1.5l4.8,3.5l-0.9,1.2c-2.3-0.9-5-0.1-6.4,2c-0.6,0.8-1.1,2.1-0.1,2.9
		c2.7,2,7.2-7.5,12.9-3.4C260,225.7,259.5,229.2,257.4,232.2z"/>
        <path class="st1" d="M68.3,109.1c-1.6-0.7-3.5-1.3-4.5,0.7l-0.2,0.3l6.8,3.5c1,0.5,1.4,0.2,1.7-0.5l0.5-1l1.4,0.7l-3.5,6.7
		l-1.4-0.7l0.3-0.5c0.4-0.8,0.3-1.2-0.6-1.7l-6.8-3.5l-0.1,0.3c-1,1.9,0.5,3.1,2,4l-0.6,1.1l-4.6-2.4l5.5-10.5l4.6,2.4L68.3,109.1z"
        />
        <path class="st1" d="M82,101.3l-1.3-1l0.2-0.3c0.5-0.7,0.5-1.1-0.3-1.7l-1.9-1.4l-2.6,3.3l1.9,1.4c0.9,0.7,1.3,0.4,1.7-0.1l0.4-0.5
		l1.3,1l-4.1,5.3l-1.3-1l0.1-0.2c0.5-0.7,0.5-1.1-0.3-1.7l-5.1-3.9c-0.5-0.4-1.1-0.5-1.7-0.2l-0.8,0.4l-0.7-0.6l4.3-5.5l1.3,1
		l-0.4,0.6c-0.5,0.6-0.4,1.1,0.3,1.7l1.8,1.4l2.6-3.3l-1.8-1.4c-0.8-0.6-1.2-0.5-1.7,0.1l-0.2,0.2l-1.3-1l3.8-5l1.3,1L77.4,90
		c-0.5,0.6-0.4,1.1,0.3,1.7l5,3.8c0.9,0.7,1.3,0.4,1.7-0.1l0.4-0.5l1.3,1L82,101.3z"/>
        <path class="st1" d="M89.3,92.6l-1.1-1.2l0.2-0.1c0.7-0.6,0.7-1,0-1.8l-4.3-4.7c-0.4-0.5-1-0.6-1.6-0.5l-0.8,0.2L81,83.8l8.7-7.9
		l3.1,3.4l-0.9,0.8c-1.4-1.2-2.7-1.6-4.2-0.2l-1,0.9c-0.6,0.5-0.6,1,0,1.7l1.6,1.7l0.5-0.5c0.6-0.5,0.2-1.2-0.3-1.6l-0.3-0.3l1.1-1
		l3.5,3.9l-1.1,1l-0.3-0.3c-0.4-0.5-1-0.9-1.6-0.4l-0.5,0.5l1.6,1.8c0.7,0.8,1.2,0.7,1.7,0.2l1.1-1c1.5-1.4,1-2.9-0.2-4.3l0.9-0.8
		l3.3,3.6L89.3,92.6z"/>
        <path class="st1" d="M117.7,72.3l-1-2l1-0.5c0.5-0.3,0.6-0.6,0.5-0.9c-0.1-0.2-0.2-0.4-0.4-0.5l-0.8-0.8l-5.4,2.7l0.1,1.1
		c0,0.2,0.1,0.4,0.1,0.6c0.2,0.5,0.8,0.5,1.4,0.2l1-0.5l1,2l-6.4,3.2l-1-2l0.5-0.3c0.7-0.4,0.7-0.9,0.6-1.6l-1.4-14.4l4.3-2.1
		l10.1,9.7c0.6,0.5,1.1,1.1,1.9,0.7l0.6-0.3l1,2L117.7,72.3z M110.7,61.4l0.7,6.5l3.9-1.9L110.7,61.4z"/>
        <path class="st1" d="M145.9,48.3c-1.2,0.3-1.5,0.7-1.2,2.1l2.8,12.6l-4.5,1l-10-9.7l1.6,7.4c0.3,1.5,1,1.6,2,1.4l1.2-0.3l0.5,2.2
		l-7.3,1.6l-0.5-2.2l0.3-0.1c1.2-0.3,1.5-0.7,1.2-2.1l-1.9-8.8c-0.2-0.8-0.8-1.5-1.6-1.7l-1.2-0.3l-0.3-1.3l6.9-1.5l9.7,9.4l-1.5-7
		c-0.3-1.5-1-1.6-2-1.4l-1.1,0.2l-0.5-2.2l7.2-1.6l0.5,2.2L145.9,48.3z"/>
        <path class="st1" d="M164.7,62.3l-8.9-0.3l0.1-2.2h0.3c1.2,0,1.7-0.3,1.7-1.8l0.3-9c0-0.8-0.4-1.6-1.1-2.1l-1.1-0.6V45l8,0.3
		c5.9,0.2,10.4,2.6,10.2,9.2C174.1,59.8,169.5,62.4,164.7,62.3z M164.5,47.4L164.5,47.4c-1.2,0-1.5,0.7-1.5,1.8l-0.3,9
		c-0.1,1.6,0.4,1.8,1.7,1.9l0,0c3.3,0.1,4.4-3,4.5-5.9C169,51.1,168.2,47.5,164.5,47.4z"/>
        <path class="st1" d="M189.4,66.4c-4.9-1.4-7.7-5.9-6.2-10.8s6.1-7.3,11-5.9s7.7,5.9,6.2,10.9S194.3,67.8,189.4,66.4z M193.3,51.7
		c-2.8-0.8-4.2,1.9-4.8,4.2s-1.5,7.4,1.7,8.3c2.8,0.8,4.2-2,4.8-4.2C195.8,57.7,196.6,52.7,193.3,51.7L193.3,51.7z"/>
        <path class="st1" d="M224.9,66c-1-0.5-1.3-0.1-2.3,0.8l-10,9.2l-4.5-2.5l2.3-13.6c0.3-0.8,0.3-1.7-0.1-2.4l-0.7-1l0.6-1.2l8.1,4.4
		l-1.1,2l-0.3-0.2c-0.8-0.4-1.7-0.5-2.1,0.2c-0.1,0.2-0.2,0.4-0.2,0.6L213,72l7.2-6.6c0.2-0.1,0.3-0.3,0.4-0.5
		c0.4-0.7-0.1-1.4-0.9-1.9l-0.3-0.2l1.1-2l5.9,3.3l-1.1,2L224.9,66z"/>
        <path class="st1" d="M222.9,82.5l1.5-1.7l0.2,0.2c0.9,0.8,1.5,0.9,2.4-0.2l6-6.7c0.6-0.6,0.8-1.5,0.5-2.3l-0.5-1.1l0.9-1l12.2,11
		l-4.3,4.8l-1.2-1.1c1.4-2.2,1.9-4-0.3-5.9l-1.4-1.2c-0.8-0.8-1.5-0.7-2.4,0.3l-2.2,2.4l0.7,0.7c0.8,0.7,1.6,0.1,2.3-0.6l0.4-0.5
		l1.6,1.4l-4.9,5.4l-1.6-1.4l0.4-0.5c0.6-0.7,1.2-1.6,0.3-2.3l-0.7-0.7l-2.3,2.5c-1,1.2-0.7,1.8,0,2.5l1.6,1.4c2.2,2,4.2,1,6-0.9
		l1.3,1.2l-4.6,5.1L222.9,82.5z"/>
        <path class="st1" d="M248.1,111.2c-1.9-2.8-0.6-4.7,0.9-6.1c1.3-1.2,2.7-2.4,1.1-4.7l-0.2-0.3l-2.8,1.9c-0.8,0.5-1.5,1.2-0.8,2.1
		l0.5,0.7l-1.8,1.3l-5.1-7.4l1.8-1.3l0.2,0.2c0.7,1,1.2,1.2,2.4,0.3l7.4-5.1c0.7-0.5,1.1-1.3,1-2.1l-0.2-1.2l1.1-0.7l5,7.3
		c1.8,2.6,4,6.5,0.4,9c-1.8,1.2-4.2,0.5-6.1-1.8c0.9,1.4,0.7,3.2-0.3,4.4c-1,1.1-2.7,2.3-1.9,3.5c0.6,0.9,1.6,0.7,3,0l0.3,0.4
		c-0.2,0.2-0.5,0.4-0.7,0.5C251.4,113.6,249.5,113.2,248.1,111.2z M256.8,97.6l-0.3-0.4c-0.6-0.9-1.5-0.6-2.2-0.1l-2.6,1.8l0.9,1.3
		c0.8,1.2,2.2,2,3.6,1c1.1-0.7,1.5-2.2,0.8-3.3C256.9,97.8,256.9,97.7,256.8,97.6L256.8,97.6z"/>
        <path class="st1" d="M29.5,168.9v-1.7h1.6c0.6,0,0.7-0.5,0.7-1.1v-6.5c-0.7,0.5-1.5,0.8-2.3,0.9v-1.8c1.4-0.2,2.6-1.2,3-2.6h2.6v10
		c0,0.6,0.2,1.1,0.8,1.1h1.5v1.7L29.5,168.9z"/>
        <path class="st1" d="M47.6,169.1c-2.4,0-4.9-1.2-4.9-3.7c0-1.6,1.4-2.6,2.7-3.2c-1.3-0.5-2.2-1.8-2.2-3.2c0-2.7,2.5-3.2,4.7-3.2
		s4.4,0.9,4.4,3.4c0,1.4-1.1,2.1-2.2,2.7c1.4,1,2.7,1.7,2.7,3.7C52.7,168.2,50.1,169.1,47.6,169.1z M48.2,163.8
		c-0.4-0.2-0.8-0.4-1.2-0.6c-0.9,0.3-1.6,1.2-1.6,2.2c0,1.2,1,2.2,2.3,2.2c0,0,0,0,0,0c1,0,1.9-0.8,1.9-1.8
		C49.5,165,48.9,164.2,48.2,163.8z M47.8,157.3c-1,0-1.7,0.4-1.7,1.4c0,0.8,0.4,1.2,1.2,1.6l1.2,0.7c0.7-0.4,1.1-1.1,1.1-1.9
		c0.1-0.9-0.6-1.7-1.6-1.8C48,157.3,47.9,157.3,47.8,157.3z"/>
        <path class="st1" d="M273.4,169.1c-0.6,0-1.2-0.1-1.7-0.4c-0.8-0.5-1.6-0.8-2.5-1c-0.8,0-1,0.5-1.1,1.2v0.1h-1.8
		c0-0.6-0.1-1.3-0.1-1.9c0-1.2,0.4-2.3,1.2-3.1c0.8-0.7,1.8-1.3,2.8-1.7c1.2-0.5,2.1-1.6,2.2-2.9c0-1.1-0.9-2-2-2c0,0-0.1,0-0.1,0
		c-1,0-1.6,0.4-1.7,1.3c0.7-0.1,1.4,0.4,1.5,1.2c0,0.1,0,0.2,0,0.2c0,0.9-0.8,1.4-1.8,1.4c-1.2,0-2.1-1-2.1-2.1c0-0.1,0-0.2,0-0.3
		c0.1-1.3,0.9-2.4,2.1-2.8c0.8-0.3,1.6-0.5,2.5-0.4c2.4,0,5.1,1.1,5.1,3.9c0,4-8.1,3.4-8.1,7v0.5h0.1c0.1-1.1,1.1-2,2.2-1.9
		c0,0,0.1,0,0.1,0c1.5,0,2.6,1.2,3.5,1.2c1.3,0,1.6-0.8,1.9-1.9h0.4v1.6c0.2,1.4-0.8,2.6-2.2,2.8
		C273.7,169.1,273.5,169.1,273.4,169.1z"/>
        <path class="st1" d="M286.8,169.1c-2.4,0-4.9-1.2-4.9-3.7c0-1.6,1.4-2.6,2.7-3.2c-1.3-0.5-2.2-1.8-2.2-3.2c0-2.7,2.5-3.2,4.7-3.2
		s4.5,0.9,4.5,3.4c0,1.4-1.1,2.1-2.2,2.7c1.4,1,2.7,1.7,2.7,3.7C291.9,168.2,289.3,169.1,286.8,169.1z M287.4,163.8
		c-0.4-0.2-0.8-0.4-1.2-0.6c-0.9,0.3-1.6,1.2-1.6,2.2c0,1.2,1,2.2,2.3,2.2c0,0,0,0,0,0c1,0,1.9-0.8,1.9-1.8
		C288.7,165,288.1,164.2,287.4,163.8z M287,157.3c-1,0-1.7,0.4-1.7,1.4c0,0.8,0.4,1.2,1.2,1.6l1.2,0.7c0.7-0.4,1.1-1.1,1.1-1.9
		c0.1-0.9-0.6-1.7-1.6-1.8C287.2,157.3,287.1,157.3,287,157.3z"/>
        <path class="st1" d="M258.2,116.7c-1.3-1.5-1.5-1.5-3.4-0.5c-0.9,0.4-3.4,1.6-5.6,2.7s-6.2,3-9,4.3c-0.7,0.3-1.4,0.7-2.2,1
		c-20.9-41.6-71.6-58.4-113.3-37.5c-15.5,7.8-28.2,20.2-36.4,35.4c-7.5,0.7-7,0.6-7.5,0.8c-0.3,0.1-0.5,0.2-0.8,0.2
		c-0.4,0.1-0.4,0.1,0.6,0.6c0.5,0.3,1.2,0.7,1.6,0.9c0.9,0.6,2.2,1.5,3.7,2.4c-5,11-7.6,22.9-7.6,35c0,46.6,37.8,84.4,84.4,84.4
		s84.4-37.8,84.4-84.4c0-11.3-2.3-22.5-6.7-32.9c0.3-0.1,0.5-0.3,0.8-0.5c1.7-1,4.1-2.4,5.4-3s3.7-2.1,5.5-3.1s4.1-2.4,5.2-3
		C259.5,118.1,259.5,118.1,258.2,116.7z M162.7,79.3c31.2,0,59.8,17.7,73.8,45.6c-2,1-4.1,2-5.5,2.6c-1.2,0.6-2.9,1.4-4.7,2.2
		c-14.7-28.8-46.8-44.2-78.4-37.6c-9.6,0-17,0-17.1-0.1s-0.3,0.1-0.5,1.1l-0.2,1.4c0,0-0.5,1.9-1.2,4.5
		c-9.7,5.3-18.1,12.7-24.5,21.7c-5.2,0.3-8.6,0.6-13.6,1h-0.3C105.1,95.5,132.7,79.3,162.7,79.3z M179.9,207.5
		c0.3,0.5,0.7,1,1.1,1.4c1.2,1.3,2.3,2.7,3.4,4.2c1.6,2,3.3,4.2,3.8,4.8s1.4,1.8,2.1,2.6s1.2,1.6,1.3,1.7c0.3,0.3-0.7,0.6-3.4,1
		c-2.1,0.3-2.6,0.4-2.6,0.6c0.4,0.4,0.9,0.6,1.4,0.7c0.7,0.1,1.3,0.4,1.9,0.8c-5.1,2.1-10.4,3.6-15.9,4.4c-1.2-1.7-2.7-3.3-4.3-4.7
		c-0.4-0.3-1.2-0.9-1.8-1.3s-1.8-1.3-2.8-1.9c-3.3-2.2-4.9-4.2-5.7-6.8c-0.4-1.2-0.4-1.4-0.4-4.8c-0.1-3.2,0.1-6.5,0.6-9.7
		c0.1-1,0.3-1.9,0.3-2.1c0-1,0.1-2,0.3-3c0.2-0.6,0.3-1.5,0.4-1.9c0.3-1.8,0.8-3.6,1.4-5.3c0.1,0,0.1,0.5,0.2,1.2
		c0.1,1.3,0.2,2.7,0.5,4c0.2,0.6,0.3,1.2,0.3,1.8c0.1,0.8,0.3,1.6,0.3,1.8c0.4,1,0.7,2,0.9,3c0.2,0.7,0.4,1.4,0.7,2l0.3,0.7
		l-0.4,0.1c-1.1,0.2-1.2,0.3-1.7,1l-0.5,0.7l0.4,0.4c0.9,0.9,1.6,2,2.2,3.2c0.3,0.5,0.6,0.9,0.8,1.4c0.9,1.7,1.7,3.4,2.4,5.2
		c0.6,1.5,1.2,2.9,1.3,3.2l0.2,0.5l0.3-0.3c0.2-0.2,0.3-0.4,0.3-0.7c-0.1-0.4-0.1-0.4,0.8-0.5s1.1-0.3,0.8-0.7
		c-0.1-0.1-0.5-0.6-0.9-1.1s-0.8-0.9-0.9-1.1s-0.1-0.4,0.8-1.4c0.6-0.6,1.4-1.5,1.8-2l0.8-0.8l-0.3-0.3c-0.5-0.5-0.9-1-1.2-1.6
		c-0.5-0.7-1.1-1.7-1.4-2.1c-0.9-1.2-1.7-2.4-2.5-3.6c-0.6-0.8-1.1-1.7-1.6-2.6c-0.1-0.3-0.3-0.6-0.5-0.9c-0.1,0-0.2-0.3-0.4-0.7
		c-0.1-0.2-0.2-0.5-0.3-0.7c-0.5-0.9-0.9-1.9-1.2-2.9c-0.1-0.3-0.2-0.7-0.3-0.7c-0.4-1-0.6-2-0.7-3c-0.2-2.5-0.2-4.9-0.1-7.4
		c0.1-0.5,0.1-0.6,0-0.6s-0.2-0.1-0.1-0.3s0-0.3-0.2-0.3s-0.2-0.1-0.3,0s-1.1,3.4-1.3,4.3c-0.2,0.7-0.4,1.4-0.7,2
		c-0.6,1.7-1.2,3.5-1.6,5.3c-0.1,0.6-0.2,1.2-0.4,1.8c-0.2,0.6-0.3,1.3-0.4,1.9c0,0.3-0.1,0.8-0.1,1.1c-0.1,0.7-0.3,1.5-0.5,2.2
		c-0.4,1.8-0.7,3.7-0.8,5.6c-0.3,2.8-0.2,2.6-0.6,2.5s-0.8,0.1-1.2,1.3c-0.3,1-0.4,2.1-0.3,3.1c0,1.4-0.1,2.8-0.5,4.2l-0.5,2.1
		l-0.4-0.5c-0.5-0.6-0.9-0.8-1.2-0.7s-0.4,1.2-0.4,3.3c0.1,2.5,0.1,4.9,0,7.4c-0.1,0.1-0.7-1.1-1.5-3.1c-0.1-0.4-0.3-0.7-0.5-1
		c-0.7-1.2-1.2-2.4-1.7-3.6c-0.2-0.6-0.4-1.2-0.5-1.8c-0.6-6.2-0.8-12.4-0.6-18.6c0.1-0.9,0.2-1.7,0.2-2.6c0-0.8,0.1-1.7,0.2-2.5
		c0.1-0.6,0.2-1.1,0.2-1.7c0-0.6,0.8-4.5,1.1-5.7c1.1-2.1,2.4-4,3.9-5.8c0.7-1,1.4-1.9,1.4-1.9c0.4-0.6,0.9-1.3,1.4-1.8
		c1-1.2,1.4-1.8,1.4-2c0-0.2,0.1-0.4,0.2-0.5c0.2-0.2,0.3-0.3,0.2-0.6s-0.1-0.4-0.2-0.4s-4,5.2-4.3,5.7c-0.4,0.6-0.8,1.2-1.3,1.7
		c-0.6,0.7-1.5,2-2.1,2.8s-1.8,2.6-2.7,3.9c-1,1.4-2,2.8-2.8,4.3c0,0.1-0.5,0.9-1,1.8c-0.4,0.6-0.7,1.2-1,1.8
		c-0.1,0.3-0.2,0.5-0.4,0.7c-0.2,0.3-0.4,0.6-0.3,0.7s0,0.1-0.1,0c-0.2-1.2-0.3-2.5-0.3-3.7c0-1.4-0.1-2.7-0.3-4.1
		c-0.3-1.2-0.6-2.5-0.8-3.8c-0.1-1.4-0.2-2.8-0.2-4.2c0-2.7,0-2.8,0.3-3.3c0.3-0.5,0.6-0.9,0.8-1.4c0.3-0.7,0.7-1.4,1.2-2
		c0.4-0.6,1.1-1.7,1.6-2.6c0.8-1.3,1.7-2.5,2.8-3.5c1-1.1,3.1-3.2,4.5-4.8c3.5-3.7,3.9-4.1,5.9-5c0.5-0.3,1-0.6,1.5-1
		c0.6-0.6,2.6-2.4,2.7-2.4s0.4,0.3,0.8,0.7c1.7,1.9,4.5,2.5,6.8,1.4c0.7-0.3,1.5-0.5,2.3-0.5c1.2,0,1.2,0,1.9,0.5
		c0.3,0.2,0.6,0.4,0.9,0.5c0.4,0.3,0.7,0.7,1,1.1c0.5,0.6,1.1,1.3,1.5,1.7c0.7,0.9,1.2,2,1.4,3.1c0,0.9-0.3,1.8-0.9,2.5
		c-0.6,0.9-0.7,1-1.2,1.2c-2.3,0.6-6.7,3.3-7.5,4.6s-1.1,2.9-0.6,3.5l0.3,0.3l0.7-0.7c2-1.7,4.3-3.2,6.7-4.3
		c0.2-0.1,0.8-0.2,1.2-0.4c2-0.4,4-0.4,6,0c1.6,0.5,4.1,1.9,4.1,2.2s-0.6,0.1-1.9-0.1c-3.6-0.4-7.2,0-10.6,1.1
		c-2.2,0.7-4.6,2.6-5.3,4.4c-0.5,1.1-0.5,1.5-0.5,4.1c0,1.2,0.1,2.5,0.4,3.7c0.9,3.7,2.8,6.2,5.6,7.6c1.5,0.7,2.8,1.1,3.3,0.8
		l0.4-0.2l-0.7-0.3c-2.1-0.9-3.8-2.6-4.9-4.6c-1.1-1.9-1.8-4-2.1-6.2c-0.2-1.7-0.2-1.7,0.1-2.6c0.2-0.5,0.4-1.1,0.4-1.7
		c0-0.2,0.6-0.8,1.9-1.9c0.6-0.5,0.9-0.7,2.8-1.2c3.3-1,4.1-1.1,6.2-1c2,0,4,0.4,5.9,1.2c2,0.7,3.8,1.5,5.6,2.6
		c0.6,0.4,1.3,0.8,1.5,0.9c1.3,0.8,2.5,1.8,3.5,2.9c3,2.9,4.7,5.7,5.1,8.8c0.2,1.2,0.1,2.4-0.3,3.6c-0.5,1.2-0.7,1.2-4.4,1.1
		c-1.7-0.1-4-0.2-5-0.3c-2-0.3-2.7-0.2-1.6,0.2c0.4,0.1,0.8,0.2,1.2,0.3c1.9,0.5,3.8,1.2,5.7,2c3.3,1.4,6.4,3.1,9.3,5.3
		c2,1.6,3.8,3.4,5.4,5.4c-4.3,4.5-9.2,8.3-14.6,11.4c-1.2-0.8-2.5-1.6-4-2.6c-3.4-2.3-6.6-5-9.4-8c-0.4-0.5-0.9-1-1.4-1.5
		c-0.3-0.3-0.5-0.6-0.7-1c-0.5-1-1.3-1.7-1.6-1.7c-0.2,0-0.4,0.1-0.5,0.2C179.3,206.5,179.3,206.6,179.9,207.5z M131.4,215.9
		c0.1,0.7,0.2,2.1,0.3,3.1s0.3,2.2,0.4,2.7c0.1,0.5,0.2,1,0.2,1.5c-6.7-3.4-12.9-7.8-18.2-13.1c0.3-0.3,0.6-0.7,0.8-1.1
		c0.3-0.5,0.7-1,1.1-1.4c0.9-1,1.8-2.1,2.5-3.2c0-0.1,0.1-0.1,0.2,0c0.4,0.5,0.7,1,1,1.6c0.4,0.8,0.9,1.5,1.4,2.2
		c0.7,0.8,1.7,1.3,2.7,1.5c0.5,0.1,0.6,0,1.2-0.5c0.5-0.4,1.1-0.8,1.7-1.1c1.8-1.1,4.4-3.2,4.4-3.5c0.1-0.3,0.3-0.6,0.5-0.8l0.5-0.6
		l-0.1-2.4c0-0.8,0-1.7-0.2-2.5c-0.2-1.5-0.4-2.9-0.4-4.4c0.3-0.2,2-1.1,4-2c2.3-1.1,2.4-1.1,2.4-0.8s0.1,1.8,0.2,3.5
		s0.2,3.9,0.2,4.6l0.1,1.3l-1.1,1.9c-0.4,0.6-0.8,1.3-1.1,2c-0.2,0.4-0.4,0.8-0.6,1.2c-0.9,1.5-4.4,8.5-4.4,8.8
		C131.3,214.6,131.3,215.3,131.4,215.9z M177.4,139c1.7-0.5,3.5-0.7,5.3-0.5c2.5,0.2,5,0.6,7.4,1.2c0.4,0.1,1.4,0.3,2.1,0.4
		s2,0.4,2.8,0.6s2.4,0.5,3.5,0.7c0.8,0.1,1.5,0.3,2.3,0.5c0.2,0.1-8.1,4.2-15.3,7.5l-2.7,1.2h-1.4c-2,0-3.1,0.3-3.8,1.3
		c-0.2,0.2-0.4,0.4-0.6,0.6c0-0.2-0.1-0.5-0.2-0.7c-0.1-0.3-0.2-0.6-0.3-0.9c-0.2-0.5-0.4-1.1-0.5-1.6c-0.3-1.3-0.5-1.7-0.6-1.6
		c0,1.1,0.2,2.2,0.5,3.2c0.2,1.2,0.4,2.3,0.4,3.5c0,0.6-0.1,1.1-0.4,1.6c-0.5,1.1-0.9,1.3-1.6,1.1c-1.4-0.4-2.5-1.3-3.2-2.5
		c-0.3-0.6-0.9-0.9-1.5-0.9c-0.6-0.1-0.9,0.1-1.2,1.1c-0.1,0.5-0.4,0.9-0.9,1.1c-0.4,0.3-0.9,0.3-1.3,0.2c-0.7-0.2-0.7-0.3-1.7-1.8
		c-0.2-0.3-0.6-0.8-0.8-1.1l-0.4-0.5l0.1,1c0.1,0.9,0,1-0.3,1.4c-0.5,0.5-1.2,0.7-1.9,0.5c-0.6-0.2-0.7-0.3-0.9-1.5
		c-0.1-0.5-0.2-1-0.2-1.1c-0.2-0.4-0.3-0.8-0.3-1.2c-0.1-0.6-0.3-1.5-0.4-2c-0.1-0.7-0.2-1.3-0.2-2c0-0.6,0-1.1-0.1-1.1
		s-0.2-0.3-0.4-0.7c-0.2-0.6-0.4-0.7-0.6-0.7s-0.3,0.1-0.3,0.5s0.1,1.2,0.2,2s0.3,2.7,0.4,4.1c0.2,2.9,0.2,3-0.7,3.6
		c-1.2,0.7-2.6-0.1-3-1.7c-0.1-0.3-0.2-0.6-0.3-0.9c-0.2-0.3-0.3-0.7-0.3-1.1c-0.1-0.5-0.2-1-0.3-1c-0.5-2.1-0.7-4.2-0.7-6.4
		c-0.1-1.6-0.2-3.6-0.3-4.4c-0.1-1.1-0.2-2.1-0.2-3.2l-0.1-1.7l0.8,0.1c0.3,0,0.7,0.1,1,0.2c0.1,0.1,0.9,0.6,1.7,1.2
		c1.7,1.1,3.2,2.5,4.5,4.1l1,1.2l0.8-0.1c1-0.1,1.6-0.5,1.7-1.3c0.1-0.4,0.1-0.5,0.5-0.5c0.4,0,0.7,0.1,1,0.3
		c0.5,0.3,1.1,0.3,1.7,0.1c0.3-0.1,0.4-0.1,1.4,0.6c1.3,1,2.5,2,3.3,2.6c1.1,1,1.5,1.2,1.9,1s0.7-1.1,0.7-1.8c0.1-0.5,0.3-1,0.5-1.5
		C175.5,140.3,176.3,139.4,177.4,139z M175.8,94.9c20.6,4.1,38.3,17.4,47.8,36.2c-0.7,0.3-1.3,0.6-1.9,0.9c-2.7,1.3-5.1,2.4-5.3,2.5
		s-4.3-0.7-19.8-4.1c-10.7-2.3-19.5-4.2-19.5-4.3s-0.4-7.2-0.7-15.9L175.8,94.9z M153,156c0.2,0.4,0.4,0.8,0.6,1.2
		c0.2,0.4,0.3,0.9,0.4,1.3c0,0.2,0.1,0.4,0.2,0.5c0.1,0.1,0.1,0.3-0.4,0.6c-2.3,1.9-4.4,3.9-6.5,6c-2.1,2-3.9,3.6-4,3.6
		s-0.2,0-1-3.1c-0.7-2.5-1.2-3.6-1.8-4.3c-0.2-0.2-0.4-0.4-0.3-0.4c2.5-0.2,4.9-0.7,7.2-1.5c1.2-0.4,2.3-1,3.3-1.7
		c1.3-0.8,1.5-0.9,1.8-1.6S152.8,155.8,153,156z M151.9,154.7c-0.5,1.6-1.2,2.3-3.9,3.7c-1.9,0.9-4,1.6-6.1,1.9
		c-2.4,0.2-4.9,0.3-7.3,0.2c-1.9,0-3.7,0-4.9-0.1c-1.8-1.6-3.7-6.3-4-9c-0.3-2.4-0.6-4.8-1-7.2c-0.4-1.5-2.1-1-2.1-1
		c-1.1,0.3-1.1,0.9-1.8,1.7c-0.6,0-1.2-0.1-1.7-0.3c0.3-0.1,4-6.7,6.2-9.4c2.8-0.7,6.2-0.5,9.1-0.7c-0.1-0.2-0.1-0.3-0.2-0.4
		c-0.2-0.4-0.4-0.8-0.7-1.2l3.9,0.4c3,0.3,6.2,0.7,7.1,0.8s1.9,0.2,2.3,0.3s1.4,0.2,2.2,0.3l1.5,0.2l0.2,1.8c0,0.7,0.1,1.3,0.3,2
		c0.2,0.8,0.3,1.5,0.3,2.3c0.1,1.1,0.2,2.1,0.2,2.1s0.4,4.4,0.5,7.8C152.2,152.2,152.1,153.4,151.9,154.7z M136.2,108.2l-3,11.7
		L130,120c-1.1,0.1-2.2,0.1-3.3,0c0,0,5.7-21.4,5.7-23.8l2.6,0.1c1.4-0.1,2.9,0,4.3,0.1C139.2,96.4,137.8,101.8,136.2,108.2z
		 M123.5,119.8c0,0-5.5,0.3-12.1,0.7c-1.1,0.1-2.1,0.1-3.1,0.2c5.3-7,12-12.9,19.5-17.4C125.9,110.5,123.5,119.7,123.5,119.8z
		 M120.4,129c0,0,2.3,2.9,0.4,5.7c-1.5,2.9-3.5,5.4-5,8.3c-0.9,1.7-0.4,3.1,1.8,3.4c1.8,0.2,1.9,0.7,3.8,0.6
		c0.5,0.8,0.4,0.6-0.1,2.4c-0.6,2.2,0,2.5,0.7,3.1c-0.2,0.9-0.1,1.9,0.3,2.8c0,0-0.9,5.2,0.2,6.3c0.8,0.5,1.7,0.8,2.7,0.8
		c1.7,0.2,3.4,0.3,5.1,0.4c0.2,0,5-0.3,7.4-0.2c0,0,2.1,0.6,2.3,1.1c0.8,1.9,1.4,3.8,1.8,5.8c0.2,0.9,0.3,1.6,0.3,1.6
		s-1.3,0.5-2.8,1c-3.4,1.1-6.7,2.4-10,3.9c-0.5,0.5-1,1-1.4,1.6c-0.6,0.8-1.3,1.7-1.6,2s-0.6,0.7-0.7,0.8s-1.2,1.6-2.5,3.3
		s-2.8,3.7-3.3,4.4c-1.3,1.7-2.4,3.5-3.4,5.4c-1.1,1-2.3,1.8-3.6,2.5c-1.7,1-3.3,2-3.5,2.2s-1.7,1.1-3.4,2
		c-7.7-11.3-11.7-24.6-11.7-38.2c0-11.5,2.9-22.8,8.4-32.9h2.2L120.4,129z M124.6,204.8c-0.6-0.1-1.1-0.5-1.4-1
		c-0.5-0.6-0.6-1.5-0.2-2.2c0.3-0.3,0.6-0.6,0.9-0.8c0.7-0.4,1-0.8,1.4-2.1s1.1-2,3.1-3.1c0.8-0.5,1.5-0.9,1.5-0.9s0.1,0.3,0.2,0.8
		c0,0.6,0.1,1.2,0.2,1.8c0.1,0.8,0.2,2.3,0.4,4.9c0,0.6,0,0.7-1.1,1.8c-1.9,2.1-5,4.1-6.2,4.1c-0.6,0-0.6,0-1.2-0.8
		c-0.4-0.5-0.7-1-1-1.5c-0.2-0.4-0.4-0.8-0.7-1.1c-0.2-0.3-0.4-0.7-0.6-1l-0.3-0.6l0.5-0.5l0.5-0.5c0.2,0.3,0.4,0.7,0.6,1
		c0.2,0.5,0.5,0.9,0.8,1.3c0.3,0.3,0.5,0.6,0.7,0.9c0.2,0.3,0.5,0.6,0.9,0.7c0.2,0.1,0.5,0.1,0.6,0.2s0.4,0,0.8-0.1s0.6-0.3,0.6-0.5
		C125.6,205.2,125.4,205.1,124.6,204.8z M130.2,189.8c-0.9,0.6-1.6,1.4-2.1,2.3c-0.2,0.3-0.4,0.5-0.7,0.7c-0.3,0.2-0.5,0.3-0.8,0.5
		c-0.1,0.1-1.4,0.8-2.8,1.7s-2.9,1.7-3.2,1.9c-0.2,0.2-0.5,0.4-0.8,0.5l-0.3,0.2l0.3-0.6c0.2-0.3,0.8-1.3,1.4-2.1s1.1-1.6,1.1-1.6
		c0-0.2,3.9-6,5-7.5c2.7-3.6,5.1-5.9,6.7-6.3c0.8-0.1,1.6-0.1,2.4,0c0.3,0.1,0.3,0.2,0.3,1.5v1.4l-0.8,0.2c-0.5,0.1-0.9,0.3-1.3,0.5
		c-0.4,0.3-0.5,0.4-0.5,1.3c-0.1,1.1-0.5,2.1-1.2,2.9C132.1,188.2,131.2,189.1,130.2,189.8z M133.1,189.3c0.3-0.4,0.7-0.8,1.1-1.1
		c0.3-0.3,1-0.9,1.5-1.4l0.9-0.9l0.1,0.6c0,0.3,0.1,0.6,0.2,0.9c0.1,0.2-0.3,0.4-2.1,1.3l-2.2,1.1L133.1,189.3z M137.9,210.9
		c0.1-0.9,0.3-1.7,0.3-1.9s0.3-1.2,0.6-2.3s0.6-2,0.6-2.2c0.4-1.6,1-3.1,1.8-4.5c0.3-0.5,0.5-1.1,0.7-1.7c0-0.2,0.1-0.4,0.2-0.6
		c0.1-0.2,0.2-0.5,0.3-0.7c0.2-0.6,0.5-1.2,0.9-1.8c0.4-0.5,0.7-1.1,0.9-1.7c0.3-0.7,0.7-1.4,1.1-2.1c0.3-0.5,0.4-0.5,0.3-0.1
		c0,0.2-0.1,1-0.2,1.7c0,0.7-0.1,1.5-0.2,2.2c-0.1,0.8-0.2,1.6-0.2,2.4c0,0.8-0.1,2.1-0.2,3c-0.1,1.4-0.2,3.6-0.3,8.7
		c0,0.8-0.1,2.8-0.2,4.5c-0.2,3.9-0.1,6.5,0.6,7.8c0.2,0.5,0.5,1.3,0.7,1.8c0.1,0.4,0.3,0.8,0.5,1.1c0.3,0.5,0.5,1,0.7,1.5
		c0.2,0.6,0.5,1.2,0.8,1.8c0.1,0.2,0.3,0.6,0.5,1.1c-2.3-0.5-4.5-1.1-6.7-1.9c-0.3-0.8-0.5-1.3-0.6-1.5c-0.2-0.5-0.4-1-0.5-1l-0.4-1
		l-0.4-1c-0.6-1.3-1-2.7-1.2-4.1C137.6,216,137.4,213.4,137.9,210.9L137.9,210.9z M211.3,204.5c-0.6-1-1.2-2-1.6-3.1
		c-1.6-3.1-2-3.9-2.4-4.3c-0.1-0.1-0.5-0.9-0.9-1.6s-0.9-1.6-1-1.8c-0.4-0.5-0.7-1.1-1-1.7c-1.1-2.1-4.6-7.8-5.8-9.4
		c-0.5-0.7-1.1-1.5-1.7-2.1c-0.8-0.9-1.6-1.8-2.4-2.8c-2.5-3-5.5-5.6-8.8-7.7c-1.8-1.3-3.9-2.1-6.1-2.3l-1.3-0.1l0.9-0.5
		c0.5-0.3,1.1-0.7,1.4-0.9c0.5-0.4,0.6-0.4,1.7-0.4c1.8,0,2.4-0.5,3-2.3c0.2-0.4,0.4-1,0.5-1.2c1-1,2.1-2,3.3-2.8
		c0.1-0.1,0.2-0.2,0.3-0.3c1.2-1,2.5-1.8,3.8-2.6c4.8-3.2,5.2-3.4,7.2-4.6c0.9-0.5,1.7-1,1.7-1s6.7-4.1,9.2-5.5
		c1.2-0.7,2.6-1.5,3.2-1.8s2.7-1.5,4.8-2.7s3.9-2.2,3.9-2.3s1.2-0.7,3.1-1.7c9.6,24.3,4.5,51.9-13.1,71.2c-0.2-0.4-0.4-0.8-0.7-1.2
		C211.9,205.6,211.3,204.6,211.3,204.5L211.3,204.5z M245.3,162c0,45.6-36.9,82.7-82.6,82.7c-45.6,0-82.7-36.9-82.7-82.6
		c0-11.8,2.5-23.5,7.4-34.3c1,0.6,1.8,1.2,1.9,1.2s3.7,0.1,10,0.1c-18.1,35-4.4,78.1,30.6,96.2s78.1,4.4,96.2-30.6
		c5.2-10.1,8-21.4,8-32.8c0-9.1-1.7-18.2-5.2-26.6c0.6-0.3,1.2-0.6,1.7-1c2.8-1.6,6-3.3,8.2-4.6C243.1,140,245.3,150.9,245.3,162
		L245.3,162z"/>
        <path class="st1" d="M180.1,184.2c0.1-0.4,0.1-0.8-0.1-1.2c-0.5-1-1.1-1.8-1.8-2.6c-0.2-0.2-0.4-0.6-0.5-0.9
		c-0.2-0.5-0.2-0.6-1.3-1c-0.6-0.2-1.2-0.5-1.8-0.8c-0.5-0.3-1.1-0.4-1.7-0.4c-0.1,0-0.2,0.2-0.3,0.3c-0.2,0.4,0.1,0.8,0.7,1
		c0.3,0.1,1,0.3,1.5,0.5c1.2,0.5,1.5,0.9,1.5,2.1c-0.1,1.2,0.4,2.3,1.3,3C179,185.3,179.8,185.2,180.1,184.2z"/>
</g>
</svg>
