<?xml version="1.0" encoding="UTF-8"?>
<svg width="291px" height="72px" viewBox="0 0 291 72" version="1.1" xmlns="http://www.w3.org/2000/svg" xmlns:xlink="http://www.w3.org/1999/xlink">
    <!-- Generator: Sketch 59.1 (86144) - https://sketch.com -->
    <title>Power Cord</title>
    <desc>Created with Sketch.</desc>
    <g id="Page-1" stroke="none" stroke-width="1" fill="none" fill-rule="evenodd">
        <g id="Power-Cord" transform="translate(1.000000, 0.000000)" stroke="#0C4053">
            <path d="M0.314204287,65.4187989 C8.72739842,55.0553847 16.1998243,48.4129059 22.731482,45.4913625 C29.2631397,42.5698191 39.5823423,41.2542852 53.6890897,41.5447609 L53.6890897,37.3747119 L59.1437188,37.3747119 L105.512419,19.597593 L119.438699,19.597593 L119.438699,66.9084476 L105.512419,66.9084476 L59.1437188,53.000546 L53.6890897,53.000546 L53.6890897,49.5762887 L41.8134945,49.5762887 C33.5859371,50.0952569 27.2252663,51.6971128 22.731482,54.3818566 C18.2376978,57.0666003 12.430325,62.7343588 5.30936382,71.385132 M105.512419,19.597593 L105.512419,66.9084476" id="Path-3"></path>
            <polygon id="Path-4" points="158.234374 19.597593 173.050574 19.597593 173.050574 66.9084476 158.234374 66.9084476"></polygon>
            <polygon id="Path-5" points="209.63886 35.3424055 214.736554 35.3424055 214.736554 52.4482152 209.63886 52.4482152"></polygon>
            <path d="M173.63886,20.1686761 C181.425828,26.6742519 187.425828,30.9217833 191.63886,32.9112706 C195.851892,34.9007578 201.851892,36.319893 209.63886,37.1686761" id="Path-6"></path>
            <path d="M214.736554,39.4997231 C234.071697,39.0001276 248.940132,36.449825 256.838475,31.8349601 C264.736818,27.2200951 273.423533,16.7458014 282.898621,0.412079043" id="Path-7"></path>
            <path d="M214.736554,47.5764477 C236.414359,45.8765366 252.853052,42.384346 261.549247,37.1686761 C270.245442,31.9530062 279.438702,20.7883796 289.129028,3.67479653" id="Path-8"></path>
            <path d="M209.63886,49.4589364 C202.846312,49.7293031 195.378793,50.7382018 191.594974,52.6301113 C187.811155,54.5220209 181.629688,59.2814663 173.050574,66.9084476" id="Path-9"></path>
            <path d="M136.725827,33.4977273 C136.286143,32.9041795 136.052723,32.5190688 136.025566,32.3423949 C135.918478,31.6457061 136.33894,30.6681576 137.790185,30.2600621 C139.06534,29.9014836 140.876182,29.9179728 143.223279,29.9255252 C144.116751,29.9284001 145.631808,29.9284001 147.768448,29.9255252 L148.440832,31.0586564 L154.396837,31.0586564 L154.396837,29.3423843 L158.234374,29.3423843 L158.234374,35.3424055 L154.396837,35.3424055 L154.396837,32.7749073 L148.440832,32.7749073 L147.768448,34.2496648 L137.790185,34.0012553 L136.725827,33.4977273 Z" id="Path-10"></path>
            <path d="M136.725827,56.4977273 C136.286143,55.9041795 136.052723,55.5190688 136.025566,55.3423949 C135.918478,54.6457061 136.33894,53.6681576 137.790185,53.2600621 C139.06534,52.9014836 140.876182,52.9179728 143.223279,52.9255251 C144.116751,52.9284001 145.631808,52.9284001 147.768448,52.9255251 L148.440832,54.0586564 L154.396837,54.0586564 L154.396837,52.3423843 L158.234374,52.3423843 L158.234374,58.3424055 L154.396837,58.3424055 L154.396837,55.7749073 L148.440832,55.7749073 L147.768448,57.2496649 L137.790185,57.0012553 L136.725827,56.4977273 Z" id="Path-10"></path>
        </g>
    </g>
</svg>