<?xml version="1.0" encoding="utf-8"?>
<!-- Generator: Adobe Illustrator 23.0.1, SVG Export Plug-In . SVG Version: 6.00 Build 0)  -->
<svg version="1.1" id="Layer_1" xmlns="http://www.w3.org/2000/svg" xmlns:xlink="http://www.w3.org/1999/xlink" x="0px" y="0px"
	 viewBox="0 0 28 27" style="enable-background:new 0 0 28 27;" xml:space="preserve">
<style type="text/css">
	.st0{fill:#219B86;}
</style>
<path class="st0" d="M14,0C6.6,0,0.6,4.8,0.1,10.9C0.8,10,2.5,9.3,4.5,9.3c2.2,0,4.1,0.8,4.6,1.9c0.5-1,2.3-1.8,4.4-1.9v14.5
	c0,1.7,1.4,3.1,3.1,3.1s3.1-1.4,3.1-3.1v-1.4h-1v1.4c0,1.2-1,2.1-2.1,2.1s-2.1-1-2.1-2.1V9.3c2.2,0.1,3.9,0.9,4.4,1.9
	c0.5-1.1,2.4-1.9,4.6-1.9c2,0,3.8,0.7,4.4,1.6C27.5,4.8,21.4,0,14,0z"/>
</svg>
